<svg viewBox="0 0 500 500" xmlns="http://www.w3.org/2000/svg"><g fill="#FFF"><path d="M316.623 332.81c-7.32 8.53-6.1 21.34 2.43 28.46 8.53 7.11 21.34 5.89 28.46-2.65l50.82-60.99c6.09-7.73 6.09-18.71 0-26.23l-50.83-61c-7.32-8.75-20.13-9.97-28.67-2.65 -8.75 7.11-9.97 19.92-2.65 28.46l37.2 44.726c1.42 1.83 1.42 4.47-.02 6.5l-36.78 45.33Z"/><path d="M169.636 366.36c11.18 0 20.33-9.15 20.33-20.33 0-4.88-1.83-9.56-4.88-13.22l-37.41-44.73c-1.63-2.04-1.63-4.68-.02-6.51l37.2-44.73c7.11-8.75 5.89-21.55-2.65-28.67 -8.75-7.32-21.55-6.1-28.67 2.43l-50.83 60.99c-6.31 7.52-6.31 18.5-.02 26.02l50.82 60.99c3.86 4.47 9.55 7.31 15.65 7.31l.44.4Z"/><path d="M223.51 358.23c2.23.81 4.67 1.22 7.11 1.22 8.33-.21 15.85-5.29 18.9-13.22l40.66-108.45c4.06-10.58-1.02-22.37-11.39-26.43 -10.58-4.27-22.37.81-26.43 11.18 -.21.2-.41.4-.41.81L211.28 331.7c-4.07 10.36 1.22 22.16 11.79 26.02l.4.48Z"/><path d="M500 98.95c0-34.59-28.125-62.5-62.5-62.5h-375C27.91 36.45 0 64.36 0 98.95v302.08c0 34.37 27.91 62.5 62.5 62.5h375c34.375 0 62.5-28.13 62.5-62.5V98.94ZM201.125 78.11c5.2-9.8 17.5-13.34 27.292-7.92 3.125 1.66 6.04 4.375 7.7 7.7v-.21c1.875 2.91 2.91 6.66 3.125 10.41 -.21 3.54-1.25 7.29-3.34 10.41 -5.42 9.58-17.71 13.12-27.5 7.7 -3.34-1.88-6.25-4.59-7.92-7.92 -2.09-3.125-3.125-6.875-3.34-10.42 0-3.75 1.04-7.5 3.125-10.42l.83.62Zm-72.917 0c5.2-9.8 17.5-13.34 27.292-7.92 3.125 1.66 6.04 4.375 7.7 7.7v-.21c1.875 2.91 2.91 6.66 3.125 10.41 -.21 3.54-1.25 7.29-3.34 10.41 -5.42 9.58-17.708 13.12-27.5 7.7 -3.34-1.88-6.25-4.59-7.92-7.92 -2.09-3.125-3.125-6.875-3.34-10.42 0-3.75 1.04-7.5 3.12-10.42l.83.62ZM54 79.98c3.33-7.5 10.62-12.5 18.75-12.5l-.03-.03c7.29 0 13.95 3.95 17.5 10.41 1.875 2.91 2.91 6.66 3.125 10.41 -.21 3.54-1.25 7.29-3.34 10.41 -5.42 9.58-17.71 13.12-27.5 7.7 -3.34-1.875-6.25-4.59-7.92-7.92 -2.09-3.125-3.125-6.875-3.34-10.42 0-3.125.625-6.07 1.875-8.57l.85.45Zm404.33 320.83c0 11.45-9.375 20.83-20.84 20.83h-375c-11.67 0-20.84-9.38-20.84-20.84V145.59c0-2.92 2.29-5.21 5.2-5.21H453.1c2.7 0 5.2 2.29 5.2 5.2v255.2Z"/></g></svg>