<svg viewBox="0 0 500 500" xmlns="http://www.w3.org/2000/svg"><defs><clipPath id="a"><path d="M0 0h500v500H0Z"/></clipPath></defs><g clip-path="url(#a)"><path fill="#DB2880" d="M121.99 0h255.97c67.37 0 121.99 54.61 121.99 121.99v255.97c0 67.37-54.62 121.99-121.99 121.99H121.98C54.6 499.95-.01 445.33-.01 377.96V121.98C-.01 54.6 54.6-.01 121.98-.01Z"/><g fill="#FFF"><path d="M293.972 304.59c-4.84 5.63-4.03 14.08 1.61 18.78 5.63 4.69 14.08 3.89 18.78-1.75l33.54-40.26c4.02-5.1 4.02-12.35 0-17.31l-33.55-40.26c-4.84-5.77-13.29-6.58-18.92-1.75 -5.77 4.69-6.58 13.14-1.75 18.78l24.55 29.51c.93 1.2.93 2.95-.02 4.29l-24.28 29.92Z"/><path d="M196.961 326.73c7.38 0 13.41-6.04 13.41-13.42 0-3.23-1.21-6.31-3.22-8.73l-24.69-29.52c-1.08-1.35-1.08-3.09-.02-4.3l24.55-29.52c4.69-5.77 3.89-14.23-1.75-18.92 -5.77-4.83-14.23-4.03-18.92 1.61l-33.55 40.25c-4.16 4.96-4.16 12.21-.02 17.17l33.54 40.25c2.55 2.95 6.3 4.83 10.33 4.83l.29.26Z"/><path d="M232.518 321.371c1.47.53 3.08.8 4.69.8 5.5-.14 10.46-3.49 12.47-8.73l26.83-71.58c2.68-6.98-.68-14.76-7.52-17.45 -6.98-2.82-14.76.53-17.45 7.38 -.14.13-.27.26-.27.53l-26.84 71.51c-2.69 6.84.8 14.62 7.78 17.17l.26.32Z"/><path d="M415 150.25c0-22.83-18.57-41.25-41.25-41.25h-247.5C103.42 109 85 127.42 85 150.25v199.375c0 22.68 18.42 41.25 41.25 41.25h247.5c22.68 0 41.25-18.57 41.25-41.25V150.25ZM217.74 136.5c3.43-6.47 11.54-8.8 18.01-5.23 2.06 1.1 3.98 2.88 5.08 5.08v-.14c1.23 1.92 1.92 4.4 2.06 6.875 -.14 2.33-.83 4.81-2.2 6.875 -3.58 6.32-11.69 8.66-18.15 5.08 -2.2-1.24-4.125-3.03-5.23-5.23 -1.375-2.07-2.07-4.54-2.2-6.875 0-2.48.68-4.95 2.06-6.88l.55.41Zm-48.13 0c3.43-6.47 11.55-8.8 18.01-5.23 2.06 1.1 3.98 2.88 5.08 5.08v-.14c1.23 1.92 1.92 4.4 2.06 6.875 -.14 2.33-.83 4.81-2.2 6.875 -3.58 6.32-11.69 8.66-18.15 5.08 -2.2-1.24-4.125-3.03-5.23-5.23 -1.38-2.07-2.07-4.54-2.2-6.875 0-2.48.68-4.95 2.06-6.88l.55.41Zm-48.98 1.23c2.2-4.95 7.01-8.25 12.37-8.25l-.02-.02c4.81 0 9.21 2.61 11.55 6.875 1.23 1.92 1.92 4.4 2.06 6.875 -.14 2.33-.83 4.81-2.2 6.875 -3.58 6.32-11.69 8.66-18.15 5.08 -2.2-1.24-4.13-3.03-5.23-5.23 -1.375-2.07-2.07-4.54-2.2-6.875 0-2.07.41-4.01 1.23-5.66l.56.3Zm266.86 211.75c0 7.56-6.19 13.75-13.75 13.75h-247.5c-7.7 0-13.75-6.19-13.75-13.75V181.04c0-1.93 1.51-3.44 3.43-3.44H384.04c1.78 0 3.43 1.51 3.43 3.43v168.43Z"/></g></g></svg>